<svg width="100" height="100" viewBox="0 0 55 55" xmlns="http://www.w3.org/2000/svg"><rect width="55" height="55" fill="#F5F8E8"/><defs><clipPath id="pcw"><rect width="55" height="55"/></clipPath></defs><g clip-path="url(#pcw)"><g transform="translate(-132,-92)"><g transform="rotate(90 159.5 119.5)"><path d="M 15,165 A 95,95 0 0,1 205,165 L 188,165 A 78,78 0 0,0 32,165 Z" fill="#F9D34A" stroke="#37474F" stroke-width="1.8"/><path d="M 32,165 A 78,78 0 0,1 188,165 L 171,165 A 61,61 0 0,0 49,165 Z" fill="#5FD4E2" stroke="#37474F" stroke-width="1.8"/><path d="M 49,165 A 61,61 0 0,1 171,165 L 154,165 A 44,44 0 0,0 66,165 Z" fill="#A86BC2" stroke="#37474F" stroke-width="1.8"/><path d="M 66,165 A 44,44 0 0,1 154,165 L 137,165 A 27,27 0 0,0 83,165 Z" fill="#5FB664" stroke="#37474F" stroke-width="1.8"/></g></g></g></svg>