<svg width="140" height="140" viewBox="0.0 0.0 140.0 140.0" xmlns="http://www.w3.org/2000/svg"><rect x="0.0" y="0.0" width="140.0" height="140.0" fill="#F5F8E8" rx="20"/><rect x="18.0" y="26.0" width="104.0" height="90.0" rx="8" ry="8" fill="#EAD6AF" stroke="#37474F" stroke-width="2"/><rect x="18.0" y="108.0" width="104.0" height="8.0" rx="2" ry="2" fill="#C9A46F" stroke="#37474F" stroke-width="1.5"/><polygon points="109.1,88.0 108.9,90.2 108.3,92.3 107.2,94.3 105.8,96.1 104.1,97.5 102.1,98.6 99.8,99.4 97.3,99.8 94.7,99.9 92.0,99.6 89.3,99.1 86.7,98.3 84.2,97.3 81.9,96.2 79.9,94.9 78.2,93.6 76.8,92.2 75.7,90.8 75.1,89.4 74.9,88.0 75.1,86.6 75.7,85.2 76.8,83.8 78.2,82.4 79.9,81.1 81.9,79.8 84.2,78.7 86.7,77.7 89.3,76.9 92.0,76.4 94.7,76.1 97.3,76.2 99.8,76.6 102.1,77.4 104.1,78.5 105.8,79.9 107.2,81.7 108.3,83.7 108.9,85.8" fill="#F9D34A" stroke="#37474F" stroke-width="2"/><circle cx="48.0" cy="88.0" r="16.5" fill="#A86BC2" stroke="#37474F" stroke-width="2"/><circle cx="48.0" cy="88.0" r="8.3" fill="#F5F8E8" stroke="#37474F" stroke-width="2"/><polygon points="48.0,47.0 48.2,46.0 49.3,43.6 51.9,41.1 55.7,40.0 59.8,41.0 62.9,43.9 64.1,48.0 62.9,52.3 59.8,56.3 55.7,59.9 51.9,63.3 49.3,66.2 48.2,68.3 48.0,69.1 47.8,68.3 46.7,66.2 44.1,63.3 40.3,59.9 36.2,56.3 33.1,52.3 31.9,48.0 33.1,43.9 36.2,41.0 40.3,40.0 44.1,41.1 46.7,43.6 47.8,46.0" fill="#EF6C6A" stroke="#37474F" stroke-width="2"/><polygon points="92.0,34.5 108.6,46.6 102.3,66.1 81.7,66.1 75.4,46.6" fill="#5FD4E2" stroke="#37474F" stroke-width="2"/></svg>