<svg width="288" height="262" viewBox="-4.0 84.0 288.0 262.0" xmlns="http://www.w3.org/2000/svg"><defs><linearGradient id="kbg3" x1="0" y1="0" x2="0" y2="1"><stop offset="0" stop-color="#8CC2EF"/><stop offset="1" stop-color="#4D8FC5"/></linearGradient></defs><rect x="-4.0" y="84.0" width="288.0" height="262.0" fill="#FAFAFA" rx="14"/><rect x="6.0" y="262.0" width="268.0" height="74.0" rx="10" ry="10" fill="#F2E2B4" stroke="#37474F" stroke-width="1.5"/><circle cx="30.0" cy="300.0" r="2.2" fill="#D9C48E"/><circle cx="70.0" cy="322.0" r="2.2" fill="#D9C48E"/><circle cx="120.0" cy="306.0" r="2.2" fill="#D9C48E"/><circle cx="175.0" cy="326.0" r="2.2" fill="#D9C48E"/><circle cx="222.0" cy="298.0" r="2.2" fill="#D9C48E"/><circle cx="250.0" cy="318.0" r="2.2" fill="#D9C48E"/><circle cx="95.0" cy="290.0" r="2.2" fill="#D9C48E"/><circle cx="200.0" cy="292.0" r="2.2" fill="#D9C48E"/><g transform="translate(140.0,3.0) scale(1.000)"><ellipse cx="0.0" cy="255.0" rx="55.0" ry="14.0" fill="#3B6D96" stroke="#37474F" stroke-width="2"/><rect x="-55.0" y="105.0" width="110.0" height="150.0" fill="url(#kbg3)" stroke="#37474F" stroke-width="2"/><rect x="-47.0" y="109.0" width="22.0" height="142.0" rx="6" ry="6" fill="white" opacity="0.3"/><ellipse cx="0.0" cy="105.0" rx="55.0" ry="14.0" fill="#8CC2EF" stroke="#37474F" stroke-width="2"/><ellipse cx="-16.5" cy="102.0" rx="22.0" ry="5.0" fill="white" opacity="0.6"/></g></svg>