<svg xmlns="http://www.w3.org/2000/svg" viewBox="0 0 140 180" width="140" height="180"><rect x="2" y="2" width="136" height="176" fill="#FFFFFF" stroke="#888" stroke-width="1.5" rx="6"/><rect x="21.800000000000004" y="14.0" width="32" height="32" fill="#FFFFFF" stroke="#212121" stroke-width="2"/><circle cx="37.800000000000004" cy="30" r="7.167999999999999" fill="#1D8BFF" stroke="#0D47A1" stroke-width="1.5"/><line x1="55.800000000000004" y1="30" x2="84.2" y2="30" stroke="#5D4037" stroke-width="2.5"/><rect x="86.2" y="14.0" width="32" height="32" fill="#FFFFFF" stroke="#212121" stroke-width="2"/><polygon points="102.2,19.759999999999998 105.272,26.928 112.44,27.951999999999998 106.296,32.048 108.34400000000001,40.24 102.2,35.12 96.056,40.24 98.104,32.048 91.96000000000001,27.951999999999998 99.128,26.928" fill="#FFD60A" stroke="#5D4037" stroke-width="1.5"/><rect x="21.800000000000004" y="62.0" width="32" height="32" fill="#FFFFFF" stroke="#212121" stroke-width="2"/><polygon points="37.800000000000004,70.832 44.968,83.12 30.632000000000005,83.12" fill="#E63946" stroke="#7F0000" stroke-width="1.5"/><line x1="55.800000000000004" y1="78" x2="84.2" y2="78" stroke="#5D4037" stroke-width="2.5"/><rect x="86.2" y="62.0" width="32" height="32" fill="#FFFFFF" stroke="#212121" stroke-width="2"/><polygon points="102.2,70.832 107.32000000000001,78 102.2,85.168 97.08,78" fill="#7B1FA2" stroke="#4A148C" stroke-width="1.5"/><rect x="21.800000000000004" y="110.0" width="32" height="32" fill="#FFFFFF" stroke="#212121" stroke-width="2"/><rect x="31.656000000000006" y="119.856" width="12.288" height="12.288" fill="#06A77D" stroke="#1B5E20" stroke-width="1.5"/><line x1="55.800000000000004" y1="126" x2="84.2" y2="126" stroke="#5D4037" stroke-width="2.5"/><rect x="86.2" y="110.0" width="32" height="32" fill="#FFFFFF" stroke="#212121" stroke-width="2"/><path d="M102.2 132.144 Q94.00800000000001 126 98.104 121.904 Q102.2 119.856 102.2 123.952 Q102.2 119.856 106.296 121.904 Q110.392 126 102.2 132.144" fill="#E91E63" stroke="#880E4F" stroke-width="1.5"/></svg>