<svg viewBox="0 0 700 250" role="img" aria-label="Yıldız 6, daire 3, üçgen 8 demek. Dizi 6, 3, 8, 6, 3 diye gidiyor; 6, 3, 8 parçası tekrar ettiği için soru işaretinin yerine 8 yani üçgen gelir." xmlns="http://www.w3.org/2000/svg"><rect x="150" y="12" width="400" height="46" rx="12" fill="#F4F3FB" stroke="#6B5BFF" stroke-width="2"/><polygon points="185,22.6 188.4,30.8 197.4,31.5 190.6,37.4 192.6,46.1 185,41.4 177.4,46.1 179.4,37.4 172.6,31.5 181.6,30.8" fill="#FFC62E" stroke="#37474F" stroke-width="2" stroke-linejoin="round"/><line x1="203" y1="34" x2="223" y2="34" stroke="#90A4AE" stroke-width="2.5" stroke-linecap="round"/><polygon points="231,34 219.3,39.7 219.3,28.3" fill="#90A4AE"/><text x="247" y="41" font-family="Nunito, Arial, sans-serif" font-size="18" font-weight="900" fill="#1B1846" text-anchor="middle">6</text><circle cx="320" cy="34" r="13" fill="#6AAE2A" stroke="#37474F" stroke-width="2"/><line x1="338" y1="34" x2="358" y2="34" stroke="#90A4AE" stroke-width="2.5" stroke-linecap="round"/><polygon points="366,34 354.3,39.7 354.3,28.3" fill="#90A4AE"/><text x="382" y="41" font-family="Nunito, Arial, sans-serif" font-size="18" font-weight="900" fill="#1B1846" text-anchor="middle">3</text><polygon points="455,22.3 468,45.7 442,45.7" fill="#FF7043" stroke="#37474F" stroke-width="2" stroke-linejoin="round"/><line x1="473" y1="34" x2="493" y2="34" stroke="#90A4AE" stroke-width="2.5" stroke-linecap="round"/><polygon points="501,34 489.3,39.7 489.3,28.3" fill="#90A4AE"/><text x="517" y="41" font-family="Nunito, Arial, sans-serif" font-size="18" font-weight="900" fill="#1B1846" text-anchor="middle">8</text><text x="150" y="112" font-family="Nunito, Arial, sans-serif" font-size="18" font-weight="900" fill="#1B1846" text-anchor="middle">6</text><polygon points="150,137.7 153.7,146.6 163.3,147.4 156,153.6 158.2,163 150,158 141.8,163 144,153.6 136.7,147.4 146.3,146.6" fill="#FFC62E" stroke="#37474F" stroke-width="2" stroke-linejoin="round"/><text x="220" y="112" font-family="Nunito, Arial, sans-serif" font-size="18" font-weight="900" fill="#1B1846" text-anchor="middle">3</text><circle cx="220" cy="150" r="14" fill="#6AAE2A" stroke="#37474F" stroke-width="2"/><text x="290" y="112" font-family="Nunito, Arial, sans-serif" font-size="18" font-weight="900" fill="#1B1846" text-anchor="middle">8</text><polygon points="290,137.4 304,162.6 276,162.6" fill="#FF7043" stroke="#37474F" stroke-width="2" stroke-linejoin="round"/><text x="410" y="112" font-family="Nunito, Arial, sans-serif" font-size="18" font-weight="900" fill="#1B1846" text-anchor="middle">6</text><polygon points="410,137.7 413.7,146.6 423.3,147.4 416,153.6 418.2,163 410,158 401.8,163 404,153.6 396.7,147.4 406.3,146.6" fill="#FFC62E" stroke="#37474F" stroke-width="2" stroke-linejoin="round"/><text x="480" y="112" font-family="Nunito, Arial, sans-serif" font-size="18" font-weight="900" fill="#1B1846" text-anchor="middle">3</text><circle cx="480" cy="150" r="14" fill="#6AAE2A" stroke="#37474F" stroke-width="2"/><text x="550" y="112" font-family="Nunito, Arial, sans-serif" font-size="18" font-weight="900" fill="#E53935" text-anchor="middle">?</text><rect x="526" y="131" width="48" height="40" rx="8" fill="#E6FAF1" stroke="#0E7A4B" stroke-width="2.5" stroke-dasharray="5 4"/><polygon points="550,137.4 564,162.6 536,162.6" fill="#FF7043" stroke="#37474F" stroke-width="2" stroke-linejoin="round"/><path d="M125 174 L125 182 L315 182 L315 174" fill="none" stroke="#6B5BFF" stroke-width="2.5" stroke-linejoin="round" stroke-linecap="round"/><text x="220" y="204" font-family="Nunito, Arial, sans-serif" font-size="15" font-weight="800" fill="#6B5BFF" text-anchor="middle">parça</text><path d="M385 174 L385 182 L575 182 L575 174" fill="none" stroke="#6B5BFF" stroke-width="2.5" stroke-linejoin="round" stroke-linecap="round"/><text x="480" y="204" font-family="Nunito, Arial, sans-serif" font-size="15" font-weight="800" fill="#6B5BFF" text-anchor="middle">aynı parça tekrar</text><text x="640" y="112" font-family="Nunito, Arial, sans-serif" font-size="18" font-weight="900" fill="#0E7A4B" text-anchor="middle">? = 8</text><text x="350" y="238" font-family="Nunito, Arial, sans-serif" font-size="15" font-weight="800" fill="#4A4670" text-anchor="middle">tekrar eden parçayı bul, devamını yaz</text></svg>
