<svg width="740" height="96" viewBox="50.0 232.0 740.0 96.0" xmlns="http://www.w3.org/2000/svg"><defs><linearGradient id="kbg4" x1="0" y1="0" x2="0" y2="1"><stop offset="0" stop-color="#FDC382"/><stop offset="1" stop-color="#D69041"/></linearGradient><linearGradient id="kbg5" x1="0" y1="0" x2="0" y2="1"><stop offset="0" stop-color="#FBE080"/><stop offset="1" stop-color="#D4B33F"/></linearGradient><linearGradient id="kbg6" x1="0" y1="0" x2="0" y2="1"><stop offset="0" stop-color="#8FCC92"/><stop offset="1" stop-color="#519B55"/></linearGradient><linearGradient id="kbg7" x1="0" y1="0" x2="0" y2="1"><stop offset="0" stop-color="#F49897"/><stop offset="1" stop-color="#CB5C5A"/></linearGradient></defs><rect x="50.0" y="232.0" width="740.0" height="96.0" fill="#FAFAFA" rx="14"/><rect x="60.0" y="304.0" width="160.0" height="14.0" rx="3" ry="3" fill="#8B5A2B" stroke="#37474F" stroke-width="1.5"/><ellipse cx="140.0" cy="307.0" rx="74.0" ry="2.0" fill="#A0522D" opacity="0.6"/><rect x="136.0" y="288.0" width="8.0" height="20.0" rx="2" ry="2" fill="#9CA3AF" stroke="#6B7280" stroke-width="1"/><ellipse cx="140.0" cy="290.8" rx="50.0" ry="7.0" fill="#A18930" opacity="0.45"/><ellipse cx="140.0" cy="288.0" rx="50.0" ry="14.0" fill="url(#kbg5)" stroke="#37474F" stroke-width="2"/><ellipse cx="140.0" cy="282.4" rx="42.5" ry="4.5" fill="white" opacity="0.55"/><rect x="340.0" y="304.0" width="160.0" height="14.0" rx="3" ry="3" fill="#8B5A2B" stroke="#37474F" stroke-width="1.5"/><ellipse cx="420.0" cy="307.0" rx="74.0" ry="2.0" fill="#A0522D" opacity="0.6"/><rect x="416.0" y="288.0" width="8.0" height="20.0" rx="2" ry="2" fill="#9CA3AF" stroke="#6B7280" stroke-width="1"/><ellipse cx="420.0" cy="290.8" rx="50.0" ry="7.0" fill="#A36D32" opacity="0.45"/><ellipse cx="420.0" cy="288.0" rx="50.0" ry="14.0" fill="url(#kbg4)" stroke="#37474F" stroke-width="2"/><ellipse cx="420.0" cy="282.4" rx="42.5" ry="4.5" fill="white" opacity="0.55"/><rect x="620.0" y="304.0" width="160.0" height="14.0" rx="3" ry="3" fill="#8B5A2B" stroke="#37474F" stroke-width="1.5"/><ellipse cx="700.0" cy="307.0" rx="74.0" ry="2.0" fill="#A0522D" opacity="0.6"/><rect x="696.0" y="256.0" width="8.0" height="52.0" rx="2" ry="2" fill="#9CA3AF" stroke="#6B7280" stroke-width="1"/><ellipse cx="700.0" cy="290.8" rx="50.0" ry="7.0" fill="#3D7641" opacity="0.45"/><ellipse cx="700.0" cy="288.0" rx="50.0" ry="14.0" fill="url(#kbg6)" stroke="#37474F" stroke-width="2"/><ellipse cx="700.0" cy="282.4" rx="42.5" ry="4.5" fill="white" opacity="0.55"/><ellipse cx="700.0" cy="258.8" rx="40.0" ry="7.0" fill="#9B4644" opacity="0.45"/><ellipse cx="700.0" cy="256.0" rx="40.0" ry="14.0" fill="url(#kbg7)" stroke="#37474F" stroke-width="2"/><ellipse cx="700.0" cy="250.4" rx="34.0" ry="4.5" fill="white" opacity="0.55"/></svg>